<svg width="512" height="512" viewBox="0 0 512 512" xmlns="http://www.w3.org/2000/svg" role="img" aria-labelledby="t d">
  <title id="t">Brain Bolt App Icon</title>
  <desc id="d">Blue squircle with subtle green glow and a white lightning mark, padded for maskable icons</desc>

  <defs>
    <!-- Background gradient -->
    <linearGradient id="bb-bg" x1="0" y1="0" x2="1" y2="1">
      <stop offset="0%" stop-color="#1a73e8"/>
      <stop offset="100%" stop-color="#0b53c6"/>
    </linearGradient>

    <!-- Soft accent glow -->
    <radialGradient id="bb-glow" cx="50%" cy="38%" r="60%">
      <stop offset="0%" stop-color="#29ffa1" stop-opacity=".22"/>
      <stop offset="70%" stop-color="#29ffa1" stop-opacity="0"/>
    </radialGradient>

    <!-- Bolt shadow -->
    <filter id="bb-shadow" x="-30%" y="-30%" width="160%" height="160%">
      <feDropShadow dx="0" dy="8" stdDeviation="14" flood-color="#001a33" flood-opacity=".4"/>
    </filter>

    <!-- Maskable safe clip: generous padding so edges never get clipped -->
    <!-- This path fills the full canvas; the foreground art is inset inside it -->
    <clipPath id="bb-safe">
      <path d="M128 40c-48 0-88 40-88 88v256c0 48 40 88 88 88h256c48 0 88-40 88-88V128c0-48-40-88-88-88H128z"/>
    </clipPath>
  </defs>

  <!-- Full-bleed squircle background (prevents transparent corners under masks) -->
  <path fill="url(#bb-bg)" d="M128 40c-48 0-88 40-88 88v256c0 48 40 88 88 88h256c48 0 88-40 88-88V128c0-48-40-88-88-88H128z"/>

  <!-- Accent glow, contained -->
  <g clip-path="url(#bb-safe)">
    <ellipse cx="256" cy="190" rx="210" ry="150" fill="url(#bb-glow)"/>
  </g>

  <!-- Micro-contrast ring (helps at 16–32px) -->
  <path d="M128 40h256c48 0 88 40 88 88v256c0 48-40 88-88 88H128c-48 0-88-40-88-88V128c0-48 40-88 88-88z"
        fill="none" stroke="rgba(255,255,255,.12)" stroke-width="2"/>

  <!-- Foreground badge + bolt: scaled in (~82%) so it survives OS masks -->
  <g transform="translate(256,256) scale(0.82) translate(-256,-256)">
    <!-- very subtle inner badge -->
    <circle cx="256" cy="272" r="120" fill="rgba(255,255,255,.06)" stroke="rgba(255,255,255,.12)" stroke-width="2"/>
    <!-- Lightning bolt (crisp geometry) -->
    <g filter="url(#bb-shadow)">
      <path fill="#fff"
            d="M274 128c4 0 7 4 6 8l-26 84h72c5 0 7 6 4 9L192 406c-3 4-10 1-9-4l28-111h-64c-5 0-8-6-5-10l124-153c2-3 4-4 6-4z"/>
    </g>
  </g>

  <!-- Hint for tooling -->
  <metadata>maskable</metadata>
</svg>
