<svg width="512" height="512" viewBox="0 0 512 512" xmlns="http://www.w3.org/2000/svg">
  <defs>
    <linearGradient id="bb-bg" x1="0" y1="0" x2="1" y2="1">
      <stop offset="0%" stop-color="#1a73e8"/>
      <stop offset="100%" stop-color="#0b53c6"/>
    </linearGradient>
    <radialGradient id="bb-glow" cx="50%" cy="38%" r="60%">
      <stop offset="0%" stop-color="#29ffa1" stop-opacity=".22"/>
      <stop offset="70%" stop-color="#29ffa1" stop-opacity="0"/>
    </radialGradient>
    <filter id="bb-boltShadow" x="-30%" y="-30%" width="160%" height="160%">
      <feDropShadow dx="0" dy="8" stdDeviation="14" flood-color="#001a33" flood-opacity=".4"/>
    </filter>
    <clipPath id="bb-safe">
      <path d="M128 40c-48 0-88 40-88 88v256c0 48 40 88 88 88h256c48 0 88-40 88-88V128c0-48-40-88-88-88H128z"/>
    </clipPath>
  </defs>
  <path fill="url(#bb-bg)" d="M128 40c-48 0-88 40-88 88v256c0 48 40 88 88 88h256c48 0 88-40 88-88V128c0-48-40-88-88-88H128z"/>
  <g clip-path="url(#bb-safe)">
    <ellipse cx="256" cy="190" rx="210" ry="150" fill="url(#bb-glow)"/>
  </g>
  <circle cx="256" cy="268" r="118" fill="rgba(255,255,255,.06)" stroke="rgba(255,255,255,.12)" stroke-width="2"/>
  <g filter="url(#bb-boltShadow)">
    <path fill="#fff" d="M274 112c4 0 7 4 6 8l-24 84h70c5 0 7 6 4 9l-134 177c-3 4-10 1-9-4l26-109h-62c-5 0-8-6-5-10l122-151c2-3 4-4 6-4z"/>
  </g>
</svg>
