<?xml version="1.0" encoding="UTF-8"?>
<svg width="1600" height="480" viewBox="0 0 1600 480" fill="none" xmlns="http://www.w3.org/2000/svg" role="img" aria-label="Abstract electric grid background">
  <!-- Deep gradient background with vignette -->
  <defs>
    <linearGradient id="bg" x1="0" y1="0" x2="0" y2="1">
      <stop offset="0%" stop-color="#0b53c6"/>
      <stop offset="60%" stop-color="#0f3f8e"/>
      <stop offset="100%" stop-color="#0a2a43"/>
    </linearGradient>
    <radialGradient id="glow" cx="50%" cy="20%" r="70%">
      <stop offset="0%" stop-color="rgba(255,255,255,0.22)"/>
      <stop offset="100%" stop-color="rgba(255,255,255,0)"/>
    </radialGradient>
    <linearGradient id="lineGreen" x1="0" y1="0" x2="1" y2="0">
      <stop offset="0%" stop-color="#1be28a"/>
      <stop offset="100%" stop-color="#29ffa1"/>
    </linearGradient>
    <linearGradient id="lineBlue" x1="0" y1="0" x2="1" y2="0">
      <stop offset="0%" stop-color="#29a1ff"/>
      <stop offset="100%" stop-color="#1a73e8"/>
    </linearGradient>
    <filter id="soft" x="-20%" y="-20%" width="140%" height="140%">
      <feGaussianBlur stdDeviation="2.2" />
    </filter>
  </defs>

  <!-- Background -->
  <rect width="1600" height="480" fill="url(#bg)"/>
  <rect width="1600" height="480" fill="url(#glow)" opacity="0.25"/>

  <!-- Subtle grid -->
  <g opacity="0.18">
    <!-- verticals -->
    <g stroke="white" stroke-opacity="0.25" stroke-width="0.5">
      <!-- 50px spacing -->
      <path d="M50 0 V480"/><path d="M100 0 V480"/><path d="M150 0 V480"/><path d="M200 0 V480"/>
      <path d="M250 0 V480"/><path d="M300 0 V480"/><path d="M350 0 V480"/><path d="M400 0 V480"/>
      <path d="M450 0 V480"/><path d="M500 0 V480"/><path d="M550 0 V480"/><path d="M600 0 V480"/>
      <path d="M650 0 V480"/><path d="M700 0 V480"/><path d="M750 0 V480"/><path d="M800 0 V480"/>
      <path d="M850 0 V480"/><path d="M900 0 V480"/><path d="M950 0 V480"/><path d="M1000 0 V480"/>
      <path d="M1050 0 V480"/><path d="M1100 0 V480"/><path d="M1150 0 V480"/><path d="M1200 0 V480"/>
      <path d="M1250 0 V480"/><path d="M1300 0 V480"/><path d="M1350 0 V480"/><path d="M1400 0 V480"/>
      <path d="M1450 0 V480"/><path d="M1500 0 V480"/><path d="M1550 0 V480"/>
    </g>
    <!-- horizontals -->
    <g stroke="white" stroke-opacity="0.2" stroke-width="0.5">
      <path d="M0 60 H1600"/><path d="M0 120 H1600"/><path d="M0 180 H1600"/><path d="M0 240 H1600"/>
      <path d="M0 300 H1600"/><path d="M0 360 H1600"/><path d="M0 420 H1600"/>
    </g>
  </g>

  <!-- Wave lines (energy flow) -->
  <g filter="url(#soft)">
    <path d="M-50 330 C 220 260, 420 260, 700 330 S 1220 420, 1650 300"
          stroke="url(#lineBlue)" stroke-width="3" fill="none" opacity="0.65"/>
    <path d="M-50 360 C 220 290, 480 300, 800 360 S 1320 440, 1650 330"
          stroke="url(#lineGreen)" stroke-width="2.4" fill="none" opacity="0.9"/>
    <path d="M-50 305 C 260 240, 520 240, 820 300 S 1320 380, 1650 280"
          stroke="url(#lineBlue)" stroke-width="1.6" fill="none" opacity="0.45"/>
  </g>

  <!-- Top highlight sweep -->
  <rect width="1600" height="180" fill="url(#glow)" opacity="0.28"/>
</svg>
